<svg xmlns="http://www.w3.org/2000/svg" version="1.1" xmlns:xlink="http://www.w3.org/1999/xlink" xmlns:svgjs="http://svgjs.dev/svgjs" viewBox="0 0 10.754829261597868 10.754829261597868"><g transform="matrix(1,0,0,1,3.210155337728605,3.641526627421323)"><rect width="10.754829261597868" height="10.754829261597868" x="-3.210155337728605" y="-3.641526627421323" fill="#ffffff"></rect><g><path d=" M -1.0141441193907121 0.6110469177274036 Q -1.0352241966152127 0.6704155150176301 -1.061422396678276 0.7083352237909806 Q -1.0876205967413395 0.746254932564331 -1.125021253363986 0.7828498896512696 L -1.2838564807470398 0.737063750458566 L -1.2785028103408176 0.7219860114642227 L -1.1580516802212426 0.7085128806878506 Q -1.1190121242803839 0.6852338542490027 -1.0953849117342576 0.657543516091079 Q -1.0717576991881312 0.6298531779331553 -1.0603811495749087 0.5978129825701759 Q -1.0409740943523527 0.5431561787156816 -1.058035607553718 0.5015490306846085 Q -1.0750971207550837 0.4599418826535354 -1.1240997724866992 0.4425424538333127 Q -1.1627364786597036 0.4288236734173679 -1.1920144479019865 0.4380595013200493 Q -1.2212924171442692 0.44729532922273063 -1.2518814721578198 0.4751666354959927 Q -1.2824705271713703 0.5030379417692548 -1.3247058862577896 0.5442832377779054 Q -1.3805029940483808 0.599814154952081 -1.428556412031151 0.6230761200490625 Q -1.476609830013921 0.6463380851460441 -1.5406902207398798 0.623584985919599 Q -1.574615133477152 0.6115392275055987 -1.6003285724897527 0.5838387030675077 Q -1.626042011502353 0.5561381786294167 -1.6409763847000671 0.5190004014047174 Q -1.6559107578977812 0.481862624180018 -1.6586081340777352 0.44164168234937684 Q -1.6613055102576892 0.4014207405187357 -1.6479213342421333 0.3637263930328776 Q -1.6321949274238552 0.3194355347369944 -1.6081102014492994 0.2844794769682676 Q -1.5840254754747436 0.2495234191995409 -1.5508517670291122 0.2188557641218497 L -1.3967283330817906 0.26296888131260876 L -1.402082003488013 0.27804662030695204 L -1.520313811832906 0.29124660119695556 Q -1.5545801198240121 0.3130369691759196 -1.5736457797927346 0.33385764663744943 Q -1.592711439761457 0.35467832409897937 -1.6037533849742904 0.3857761607748123 Q -1.6181413741910131 0.42629758432210985 -1.6003491976748494 0.4628583345170617 Q -1.5825570211586861 0.4994190847120137 -1.5410932389242422 0.5141416783291252 Q -1.494917663254066 0.5305372939481812 -1.458326185802104 0.5111642772011035 Q -1.421734708350142 0.4917912604540258 -1.3688261311350103 0.4384182105405118 Q -1.3214214651844292 0.3915802169230026 -1.2832320861596869 0.3632240653910235 Q -1.2450427071349444 0.33486791385904446 -1.2075873868517224 0.3280050440160954 Q -1.1701320665685002 0.3211421741731465 -1.1220717735240313 0.3382069985929803 Q -1.077780915228148 0.3539334054112585 -1.0505480904986535 0.38482633756818785 Q -1.0233152657691593 0.4157192697251172 -1.0112694231469048 0.4550149142104781 Q -0.9992235805246503 0.49431055869583906 -1.0003263663502922 0.5347739231558387 Q -1.001429152175934 0.5752372876158385 -1.0141441193907121 0.6110469177274036 M -0.8987072516731673 0.2785037958642242 L -0.912578664015777 0.27052984329217455 L -0.9068890599762998 0.1803709368775892 L -1.3819849327106797 -0.09273693871511102 L -1.4570315984632052 -0.042447795160773794 L -1.4709030108058148 -0.05042174773282343 L -1.3313588407949462 -0.293171463728492 Q -1.27255094057608 -0.3954731297552381 -1.19963791934897 -0.43603100612389145 Q -1.1267248981218596 -0.47658888249254494 -1.046097313880441 -0.4302402831675064 Q -0.9984143339527205 -0.4028298212010858 -0.980257346258405 -0.3491378870035875 Q -0.9621003585640895 -0.2954459528060893 -0.972755568702667 -0.22775018855969975 Q -0.9834107788412445 -0.16005442431331024 -1.024277285772999 -0.0889634360574359 L -1.0591633282757162 -0.028276007058518737 L -0.854559996222224 0.08933979337921344 L -0.7740312380764145 0.029514053839332144 L -0.7601598257338049 0.03748800641138178 L -0.8987072516731673 0.2785037958642242 M -1.3305228322280171 -0.18426645424923982 L -1.1051123816606105 -0.05468972495343316 L -1.0672361069433747 -0.12057893358082894 Q -1.0278647161188796 -0.18906903202246395 -1.0366486522808618 -0.24602377252316532 Q -1.0454325884428437 -0.3029785130238666 -1.0939825316419776 -0.3308873470260403 Q -1.1546699606408946 -0.3657733895287575 -1.2042217496814671 -0.3417760937878075 Q -1.2537735387220392 -0.3177787980468576 -1.296135161761053 -0.24408691997674392 L -1.3305228322280171 -0.18426645424923982 M -0.5560421207221895 -0.292745778849933 L -0.5680462420663076 -0.3033241090941487 L -0.544503748565261 -0.39054079900928584 L -0.9556449046013061 -0.7528486098736727 L -1.0392080048229433 -0.7185235711796141 L -1.0512121261670613 -0.7291019014238298 L -0.867413638173814 -0.9376735097778819 Q -0.7979933459461486 -1.016450556098657 -0.7253578298058869 -1.033081304579642 Q -0.6527223136656253 -1.0497120530606274 -0.5957027372810644 -0.9994649844006029 Q -0.553688312576651 -0.962440828545848 -0.5465507707943458 -0.9055017778222378 Q -0.5394132290120406 -0.8485627270986278 -0.5631483342762066 -0.78684040716411 L -0.2288699423283494 -0.7441794569079943 L -0.15681365382242313 -0.7699843263467402 L -0.14480953247830503 -0.7594059961025245 L -0.2512539805607253 -0.638614525077336 L -0.6062722490295575 -0.6955533435880166 L -0.6611473371714263 -0.6332819641154039 L -0.475833713921603 -0.46997899097032436 L -0.3954872299575393 -0.4991413385200753 L -0.3834831086134212 -0.48856300827585963 L -0.5560421207221895 -0.292745778849933 M -0.8479672771821029 -0.8765519992911468 L -0.8869748699576481 -0.8322868018347114 L -0.7009109891238174 -0.6683226830493683 L -0.6579365225066913 -0.7170894260098482 Q -0.6169454928103555 -0.7636053962183058 -0.6168032386119466 -0.8174614985999582 Q -0.6166609844135378 -0.8713176009816108 -0.6579251515339437 -0.9076806111961022 Q -0.7006898338223646 -0.9453659126911205 -0.7511884580930119 -0.937217971431392 Q -0.8016870823636593 -0.9290700301716636 -0.8479672771821029 -0.8765519992911468 M -0.07823205172982226 -0.7998084091997586 L -0.08835912048049706 -0.8121955992975615 L -0.05019244310594434 -0.8950648018892771 L -0.3970445478165567 -1.3193260627390258 L -0.48584656894448347 -1.2983928106363245 L -0.4959736376951583 -1.3107800007341273 L -0.28926240293807276 -1.4797754605110132 L -0.27913533418739794 -1.4673882704132104 L -0.31652781218083803 -1.385152009618412 L 0.030324292529774366 -0.9608907487686633 L 0.11835211427658848 -0.9811910590744474 L 0.1284791830272633 -0.9688038689766445 L -0.07823205172982226 -0.7998084091997586 M 0.23132508398890894 -1.061554468628743 L 0.22360333774865543 -1.0755678420627572 L 0.27524167515771775 -1.1496926159890757 L 0.011737084709066398 -1.627898984424805 L -0.07859936634166931 -1.6260753584878245 L -0.08632111258192282 -1.6400887319218385 L 0.051185114239340024 -1.7158583669043261 L 0.6139391457635143 -1.4881789870666062 L 0.4131737435169228 -1.8525266963509714 L 0.30414089557483936 -1.8369755526747487 L 0.29641914933458585 -1.8509889261087626 L 0.518005616759933 -1.9730890385327715 L 0.5257273630001864 -1.9590756650987573 L 0.47448225229073426 -1.8863093361520806 L 0.7688738277003997 -1.352049473980295 L 0.7312128865964869 -1.3312972809596135 L 0.11889346178438315 -1.5784772194614558 L 0.33703279307154504 -1.182599419950559 L 0.44606564101362844 -1.1981505636267817 L 0.45378738725388196 -1.1841371901927678 L 0.23132508398890894 -1.061554468628743 M 1.0855188475171598 -1.474627267832801 L 1.0811000097243215 -1.4900049748322395 L 1.1671246906761823 -1.5563431558981276 L 1.0155033189094205 -2.0839907273163663 L 0.8636484622899638 -2.040354704112089 L 0.8371126691498656 -1.875619001599167 L 0.821734962150427 -1.8712001638063285 L 0.7648424255676347 -2.0691881414241013 L 1.3357397979217946 -2.2332374944832205 L 1.392632334504587 -2.035249516865448 L 1.3772546275051483 -2.0308306790726096 L 1.2682743777126935 -2.1566253735361447 L 1.1154584144057718 -2.1127131729698148 L 1.2670797861725336 -1.585065601551576 L 1.3761597627760507 -1.5747914249823232 L 1.3805786005688887 -1.5594137179828844 L 1.0855188475171598 -1.474627267832801 M 1.9022536582269367 -1.6495953633309617 L 1.9023174479852885 -1.6655952361700415 L 1.98347627862901 -1.705271982616086 L 1.9856610778525559 -2.2532676273545755 L 1.9048211960005927 -2.293590245103931 L 1.9048849857589445 -2.309590117943011 L 2.1828827763379595 -2.30848177089165 Q 2.2878819418444216 -2.308063150602467 2.3482080326116743 -2.264322291297451 Q 2.4085341233789266 -2.220581431992435 2.408231122026756 -2.144582036006805 Q 2.408007857872525 -2.0885824810700253 2.36983672490414 -2.0457343234910828 Q 2.3316655919357547 -2.0028861659121406 2.2695743869066893 -1.980133534019576 L 2.4574605509070637 -1.7003822348675892 L 2.5243125046045227 -1.6631154093141192 L 2.524248714846171 -1.6471155364750392 L 2.3632499944029286 -1.6477574209184531 L 2.1724635257426512 -1.9525204819611934 L 2.089464185389924 -1.9528513913326428 L 2.0884794309953696 -1.7058533543793455 L 2.1633153736727806 -1.6645546657369295 L 2.163251583914429 -1.6485547928978495 L 1.9022536582269367 -1.6495953633309617 M 2.1496637613130227 -2.253613774383913 L 2.0906642302189153 -2.253848999117835 L 2.0896754889644638 -2.0058509701120952 L 2.1546749723732264 -2.0055918242187913 Q 2.216674479624661 -2.0053446389051786 2.2573156912749255 -2.0406828889410598 Q 2.2979569029251894 -2.0760211389769405 2.2981761802195235 -2.131020701861278 Q 2.2984034312336514 -2.1880202488505005 2.2590333181088247 -2.2206774715208124 Q 2.2196632049839975 -2.2533346941911243 2.1496637613130227 -2.253613774383913 M 2.595948940686074 -1.631654834927922 L 2.599199931028642 -1.6473210744828544 L 2.6866377446319087 -1.670028534760931 L 2.7979841638648875 -2.206597239517362 L 2.726801301974465 -2.2622209770139463 L 2.7300522923170334 -2.277887216568879 L 3.221580558353034 -2.1758873945707853 L 3.18663241217042 -2.007475319355263 L 3.170966172615488 -2.010726309697832 L 3.1310949413036093 -2.1384928347099597 L 2.9009970478405416 -2.1862417553664377 L 2.852841753391242 -1.9541855819590033 L 3.015378988773665 -1.9204565571548526 L 3.082382826653497 -1.9923417831013095 L 3.0980490662084295 -1.9890907927587407 L 3.0531447621016987 -1.7727008589062385 L 3.037478522546767 -1.7759518492488073 L 3.0042037094710845 -1.866603858684773 L 2.841666474088662 -1.9003328834889235 L 2.7892442548147414 -1.6477147706656403 L 3.045778927526758 -1.5944798038060777 L 3.1372228360170453 -1.710315944971173 L 3.1528890755719776 -1.7070649546286043 L 3.1148931259432056 -1.5239657798303332 L 2.595948940686074 -1.631654834927922 M 3.515574664963692 -1.3629308032459204 L 3.528743073599552 -2.0271081839312304 L 3.480140758378717 -2.087893173486009 L 3.4865980301141097 -2.1025322869064076 L 3.729058346139463 -1.9955837237889635 L 3.72260107440407 -1.9809446103685648 L 3.6276648748090943 -1.9812881310563166 L 3.6171487453520794 -1.4940937027002 L 3.6217234682959543 -1.4920758052828895 L 3.973809723227624 -1.8318834995574471 L 3.911994604280478 -1.8974036572919197 L 3.9184518760158706 -1.9120427707123184 L 4.111505184247378 -1.826887499701825 L 4.105047912511985 -1.8122483862814263 L 4.040385106964491 -1.8068891345867408 L 3.552172448514689 -1.3467876239074383 L 3.515574664963692 -1.3629308032459204 M 3.9355713129431575 -1.152893794665193 L 3.9444560583863457 -1.1662002328967314 L 4.034863417930951 -1.1539320080792397 L 4.339165949360137 -1.6096775175094362 L 4.293182317031471 -1.6884779334846205 L 4.302067062474659 -1.7017843717161591 L 4.524118250463459 -1.5535201821329607 L 4.515233505020271 -1.5402137439014223 L 4.425657797865138 -1.5519266721287146 L 4.121355266435951 -1.0961811626985183 L 4.166507246375145 -1.017936043313533 L 4.157622500931958 -1.0046296050819945 L 3.9355713129431575 -1.152893794665193 M 4.27475748778428 -0.925874676397661 L 4.285652226191163 -0.9375923841532581 L 4.372209967721083 -0.9117320403574036 L 4.7453547581568385 -1.3130635309866037 L 4.713270708661336 -1.3975124135604435 L 4.72416544706822 -1.4092301213160405 L 5.091808527900079 -1.0674077038000742 L 4.9746900900260815 -0.9414423454274057 L 4.962972382270485 -0.952337083834289 L 4.995036969113706 -1.0822826965750565 L 4.822933136453375 -1.2422991669261563 L 4.661554823801414 -1.0687306207963745 L 4.783126041765734 -0.9556977098249593 L 4.877673611872837 -0.9824886968699031 L 4.889391319628435 -0.9715939584630198 L 4.738907745383358 -0.8097431200888351 L 4.727190037627761 -0.8206378584957186 L 4.745675378492072 -0.9154180894150944 L 4.624104160527753 -1.0284510003865095 L 4.448426503716758 -0.8395029628275066 L 4.64030396821466 -0.6611016214147911 L 4.778521104563286 -0.712831914470073 L 4.790238812318883 -0.7019371760631896 L 4.662906557188434 -0.5649864666696487 L 4.27475748778428 -0.925874676397661 M 4.887136334859637 -0.2819509063530116 L 5.300624777612557 -0.7699747866188907 L 5.290524857168493 -0.8538973199876086 L 5.303970714085704 -0.8625696283171066 L 5.449773897875389 -0.6365111588964909 L 5.436328040958178 -0.627838850566993 L 5.359162858836668 -0.6792152524277142 L 5.070654733657641 -0.34795846124346874 L 5.073906849281203 -0.3429162648995145 L 5.57105189061024 -0.45770218686710584 L 5.593816699975172 -0.422406812459426 L 5.285836384083309 -0.014333136485162212 L 5.289088499706871 -0.009290940141208015 L 5.708466941582823 -0.13579676012471248 L 5.694329213760742 -0.2278246072799554 L 5.707775070677953 -0.23649691560945335 L 5.828103348749737 -0.04993565088314583 L 5.814657491832526 -0.041263342553647886 L 5.748089022639028 -0.07805517465310002 L 5.131045006626767 0.09621381944355756 L 5.108822216532428 0.06175881109320347 L 5.4137940892845915 -0.3491343098397696 L 5.409999954390436 -0.35501687224104955 L 4.908817105683382 -0.24833626405998327 L 4.887136334859637 -0.2819509063530116 M 5.345646037734115 0.6025509651885995 Q 5.324565960509614 0.5431823678983729 5.320984368938065 0.49723215351568906 Q 5.317402777366517 0.45128193913300507 5.323350620352607 0.3992951796281772 L 5.4754937597278825 0.3346618666925445 L 5.480847430134105 0.3497396056868878 L 5.395864366455753 0.4361564957480396 Q 5.380247118542118 0.47884257740944347 5.379373005222436 0.5152326299774785 Q 5.378498891902755 0.5516226825455136 5.3898754415159775 0.583662877908493 Q 5.409282496738534 0.6383196817629873 5.448762504765956 0.6598505657707265 Q 5.488242512793377 0.6813814497784658 5.537245164524992 0.6639820209582431 Q 5.575881870697997 0.6502632405422983 5.592779477125891 0.6246317970205608 Q 5.609677083553784 0.5990003534988235 5.615840017338945 0.5580794756103945 Q 5.622002951124106 0.5171585977219655 5.628770243769303 0.4585138728930921 Q 5.63705352670467 0.38022985649247143 5.659677010257884 0.3318725613663226 Q 5.6823004938110975 0.28351526624017365 5.746380884537056 0.2607621670137286 Q 5.780305797274329 0.24871640859972832 5.81773039030054 0.25399843821176316 Q 5.855154983326752 0.259280467823798 5.8901656205478 0.27868421182788583 Q 5.9251762577688485 0.29808795583197356 5.952634359577581 0.32760155685017 Q 5.980092461386313 0.3571151578683664 5.993476637401869 0.3948095053542245 Q 6.009203044220148 0.4391003636501078 6.012555879077482 0.4814177182273902 Q 6.015908713934815 0.5237350728046727 6.009503357520296 0.5684561126986977 L 5.862072011580752 0.6314164036323858 L 5.856718341174529 0.6163386646380425 L 5.940151291878977 0.531533342064815 Q 5.953002918245194 0.49301275406640604 5.954669149393694 0.46483077979632037 Q 5.9563353805421935 0.43664880552623475 5.94529343532936 0.4055509688504018 Q 5.930905446112638 0.3650295453031043 5.8940408187743065 0.34787585033070845 Q 5.8571761914359755 0.33072215535831256 5.815712409201532 0.3454447489754241 Q 5.7695368335313555 0.36184036459448005 5.753356224503117 0.399951227763336 Q 5.737175615474877 0.43806209093219195 5.729773236712636 0.5128498224705955 Q 5.7225210988087225 0.5790948713106607 5.710765467414703 0.6251850560632514 Q 5.699009836020683 0.671275240815842 5.674269482952239 0.7002220010844583 Q 5.6495291298837955 0.7291687613530745 5.601468836839326 0.7462335857729083 Q 5.557177978543443 0.7619599925911864 5.516560977798393 0.7551585772622578 Q 5.475943977053342 0.748357161933329 5.441814244005421 0.7254571330670241 Q 5.407684510957499 0.7025571042007192 5.383022757953196 0.6704588497504419 Q 5.358361004948892 0.6383605953001648 5.345646037734115 0.6025509651885995" fill="#404040" fill-rule="nonzero"></path></g><g><path d=" M -1.3649477198541267 3.324340353236301 Q -1.4097283977397148 3.3407714483947863 -1.4531630713535075 3.330824507756414 Q -1.4965977449673 3.3208775671180413 -1.5305592687413077 3.289719263201629 Q -1.564520792515315 3.2585609592852167 -1.5812619083371682 3.212935362948957 L -1.6851188305653295 2.929887681974013 L -1.0852267305885825 2.7097730109829845 L -0.9791996637168476 2.9987351211126287 Q -0.9636986305484654 3.040981043646202 -0.9747732152783404 3.0800361146749538 Q -0.9858478000082154 3.119091185703705 -1.0148665127754124 3.1484329530215565 Q -1.0438852255426094 3.177774720339407 -1.0819065558228258 3.1917256501909512 Q -1.126687233708414 3.2081567453494366 -1.1730791218995569 3.199294877032851 Q -1.2194710100906996 3.190433008716265 -1.252940207847119 3.1566973776781224 Q -1.2492374794937793 3.2138177751097 -1.27963275002713 3.259003392613552 Q -1.3100280205604808 3.3041890101174043 -1.3649477198541267 3.324340353236301 M -1.3765101448818042 3.2614758137288864 Q -1.346093080657631 3.250315069847651 -1.3252833985260335 3.227340744404194 Q -1.304473716394436 3.2043664189607375 -1.296945834074288 3.1752407689632864 Q -1.2894179517541404 3.146115118965836 -1.300268674972008 3.116542973192334 L -1.3845942954080077 2.886725154609693 L -1.6118773586386343 2.97012071305559 L -1.529721882846208 3.1940241024835307 Q -1.518561138964973 3.2244411667077038 -1.493517089164553 3.243053409173191 Q -1.4684730393641334 3.261665651638679 -1.4372776650097197 3.266996094292716 Q -1.4060822906553057 3.272326536946754 -1.3765101448818042 3.2614758137288864 M -1.1150653096438075 2.787828562995414 L -1.3364339437197337 2.869053976797737 L -1.260788901858028 3.075214078761577 Q -1.2499381786401604 3.1047862245350784 -1.2259366293918117 3.121863640430907 Q -1.201935080143463 3.1389410563267353 -1.1716271960094364 3.1431591316364496 Q -1.1413193118754097 3.147377206946164 -1.1125920845525796 3.1368365043916637 Q -1.0821750203284066 3.1256757605104286 -1.0619002359841128 3.103856374181011 Q -1.0416254516398191 3.082036987851593 -1.0344774567752912 3.054488736193517 Q -1.0273294619107636 3.0269404845354413 -1.0375601438018958 2.9990581756632824 L -1.1150653096438075 2.787828562995414 M -0.866179134985525 3.2590953356466423 L -1.0599907748995152 3.6115622535749066 L -0.6569656410838844 3.622586840319679 L -0.6228449854261062 3.6818687166182857 L -1.0941988950980492 3.6675963013716046 L -1.300125412766894 3.7861206841828348 L -1.3315523324516898 3.731518956013065 L -1.124065765406566 3.612096661210841 L -0.9007487466388004 3.199033434659896 L -0.866179134985525 3.2590953356466423 M -0.8834847324994012 4.3722026659931 L -0.4193784853989433 3.9329687973054397 L -0.37607373778184994 3.9787257512449212 L -0.7996523971073384 4.3796039863288705 L -0.5460103039215063 4.647609002260121 L -0.5865378916964759 4.685964635863832 L -0.8834847324994012 4.3722026659931 M -0.049828201312517084 5.0400503144554865 L -0.08360542346111943 5.084465843991044 L -0.4253184490814557 4.824599151009054 L -0.03851477608939646 4.315969699876059 L 0.2967508339531977 4.570933247707445 L 0.26297361180459533 4.615348777243002 L -0.022145432633337292 4.3985208028052 L -0.1616126724727277 4.581913957016534 L 0.08697101702466581 4.770957442267582 L 0.054828176592931266 4.813223833277226 L -0.1937555129044622 4.624180348026177 L -0.34139466132819185 4.8183191948670805 L -0.049828201312517084 5.0400503144554865 M 0.5939865420689583 4.737577082147467 L 0.6412065468787115 4.761864551051552 L 0.5850336400478122 5.4515426314181585 L 0.5258085492694777 5.421080382284221 L 0.5435641027306565 5.205533124539459 L 0.28825594113216046 5.074216131651271 L 0.12403833885428976 5.214431070591838 L 0.0640129090113832 5.183557169442578 L 0.5939865420689583 4.737577082147467 M 0.553399538540294 5.154928043742818 L 0.5834409096850242 4.815142793886759 L 0.3229018879435328 5.036372263329659 L 0.553399538540294 5.154928043742818 M 0.7951118329430686 5.528892233279303 L 0.980338880259672 4.917327076536072 L 1.2387466929680795 4.995592026106468 Q 1.2783692242500353 5.007592651707262 1.3061441003869754 5.033872040124378 Q 1.3339189765239152 5.060151428541494 1.3499890158610877 5.095580778460759 Q 1.36605905519826 5.131010128380024 1.369105240494759 5.169077512781102 Q 1.372151425791258 5.207144897182179 1.3614552160166373 5.2424606315856614 Q 1.34815017458967 5.28638995974609 1.3196139243280642 5.320063909930276 Q 1.2910776740664582 5.353737860114461 1.2524120381070225 5.3711786483951665 Q 1.2137464021475868 5.388619436675872 1.169792320461895 5.384710638501556 L 1.2481868645584764 5.66611677819273 L 1.180139473878596 5.645507008139193 L 1.1046438474290614 5.376263363112996 L 0.923758378533176 5.32147789841372 L 0.8554069892416971 5.547154054845729 L 0.7951118329430686 5.528892233279303 M 0.9399331347777246 5.268073617120649 L 1.139768509938893 5.3285985114550884 Q 1.1759456037180702 5.339555604394944 1.2086480571650025 5.32783171687624 Q 1.2413505106119351 5.316107829357536 1.2657767386950443 5.288241866577974 Q 1.2902029667781534 5.260375903798413 1.3011600597180089 5.224198810019235 Q 1.312378035823099 5.187160356864364 1.3051037635281173 5.150633517929432 Q 1.2978294912331356 5.1141066789945 1.2757051827408379 5.086247390171243 Q 1.2535808742485401 5.058388101347987 1.2191264992207524 5.0479527747386 L 1.024459280313752 4.988993179395568 L 0.9399331347777246 5.268073617120649 M 1.6128081444601126 5.202780246552916 L 1.5604149785909212 5.72304879852411 L 1.4977320205221025 5.716736368901317 L 1.5617580924104433 5.0809520799175845 L 1.6136954005246071 5.0861823787479 L 1.9775996880013977 5.658323855618796 L 2.030894629530988 5.129100595352055 L 2.093577587599807 5.1354130249748495 L 2.0296416932775063 5.770301843129027 L 1.9714360893564604 5.764440301336432 L 1.6128081444601126 5.202780246552916 M 2.294874480984064 5.761888994227846 L 2.2696368054807463 5.123387577052293 L 2.332587649427632 5.120899355523797 L 2.3578253249309498 5.759400772699349 L 2.294874480984064 5.761888994227846 M 2.6065489114206852 5.744030604577735 L 2.5078701027731976 5.1126959130519865 L 2.9222390693239007 5.047929258362227 L 2.930856092050864 5.103059893396869 L 2.5787313908618548 5.158097651459412 L 2.6150062768576214 5.390179840879441 L 2.9120003430119876 5.343759105543862 L 2.920061428788825 5.39533292541498 L 2.6230673626344583 5.4417536607505586 L 2.668793176782379 5.734301707950518 L 2.6065489114206852 5.744030604577735 M 3.2135652150821157 5.625645519223089 L 3.042761155556378 5.009896403714566 L 3.1034688148318663 4.9930565668599165 L 3.274272874357604 5.608805682368439 L 3.2135652150821157 5.625645519223089 M 3.356164012702605 5.253890362598449 Q 3.333507300438065 5.1999559265732 3.3303916126539783 5.140253183841963 Q 3.3272759248698915 5.080550441110728 3.3450045412923832 5.0228294859926415 Q 3.362733157714875 4.965108530874555 3.4043768461075254 4.917841251313998 Q 3.4460205345001764 4.870573971753442 3.512401378838946 4.842688787427854 Q 3.5912286314912354 4.8095751310412185 3.662400037879111 4.8221415908757095 Q 3.7335714442669863 4.8347080507102005 3.7838261886792437 4.87997769466792 L 3.7500405615347145 4.927360617735739 Q 3.714573522996035 4.896378862180319 3.6759463714859026 4.88576021508131 Q 3.63731921997577 4.875141567982303 3.600360900434664 4.878952751092247 Q 3.5634025808935585 4.882763934202191 3.531041919278408 4.8963579615609145 Q 3.4779372438073923 4.918666109021385 3.446167379153677 4.956904678553791 Q 3.4143975144999614 4.995143248086196 3.4014145401060705 5.042084992577507 Q 3.388431565712179 5.089026737068819 3.3926252885038575 5.138514767835324 Q 3.3968190112955363 5.188002798601829 3.415641510715308 5.232809868530499 Q 3.436206834155429 5.281765741230341 3.4716245446598935 5.319601515077614 Q 3.507042255164358 5.357437288924887 3.551379074485703 5.3793240189791085 Q 3.595715893807048 5.401210749033331 3.6444991183871385 5.404634489614692 Q 3.6932823429672292 5.408058230196052 3.740578694558603 5.388190036364071 Q 3.7737691167279874 5.374247444201277 3.8037391527488635 5.347991074671058 Q 3.83370918876974 5.32173470514084 3.853887069681278 5.284949033719487 Q 3.874064950592816 5.248163362298133 3.8762857017987646 5.202325951113804 L 3.934868758066468 5.207002009104791 Q 3.9350879604890086 5.258647744168763 3.9098158727448005 5.305382865662657 Q 3.8845437850005924 5.352117987156551 3.844285044963663 5.387577349116955 Q 3.8040263049267344 5.423036711077359 3.7592192349980644 5.441859210497132 Q 3.698646714538937 5.46730444119423 3.637051529402425 5.462429436784101 Q 3.5754563442659126 5.457554432373971 3.520232347388805 5.429503137057761 Q 3.465008350511697 5.401451841741552 3.422263102543491 5.355468080736861 Q 3.379517854575285 5.309484319732169 3.356164012702605 5.253890362598449 M 4.007410354746444 4.581675567128341 L 4.0520385197680495 4.552901674676948 L 4.621441440477588 4.946083011832525 L 4.565467131806421 4.982172300669866 L 4.38760958424376 4.859117139156844 L 4.146314929296435 5.014691235631325 L 4.1857495243344545 5.226994233052905 L 4.129018806086651 5.263571214982642 L 4.007410354746444 4.581675567128341 M 4.348683910935756 4.825317701920132 L 4.06933706604544 4.629558052733109 L 4.130837952864189 4.965773312530322 L 4.348683910935756 4.825317701920132 M 4.678739668392427 4.107725249221742 L 4.51041851205985 4.261072170713059 L 4.903180587658164 4.692187227248671 L 4.856609516736107 4.7346152292423165 L 4.463847441137793 4.303500172706704 L 4.295526284805216 4.456847094198022 L 4.25794719732513 4.415598431381342 L 4.6411605809123415 4.066476586405063 L 4.678739668392427 4.107725249221742 M 5.191823743286957 4.396147295439028 L 4.708726073388476 3.9778918216689196 L 4.7499625285489095 3.9302624739324497 L 5.23306019844739 4.348517947702558 L 5.191823743286957 4.396147295439028 M 5.5476782485756475 3.9343003836131647 Q 5.510884287199492 3.99089061604112 5.458322438975704 4.022199753865395 Q 5.405760590751915 4.0535088916896695 5.345316173810708 4.061443307902443 Q 5.284871756869501 4.069377724115216 5.22443008934109 4.055843791708669 Q 5.163988421812679 4.0423098593021205 5.112679944411332 4.008950000987739 Q 5.059107857712869 3.974118384218312 5.022704911616879 3.9236121666255 Q 4.986301965520889 3.873105949032688 4.9705195455876 3.8139999406997838 Q 4.954737125654312 3.7548939323668797 4.9624040561519225 3.6943949185175216 Q 4.970070986649533 3.633895904668164 5.0049026034189605 3.5803238179697 Q 5.0416965647951155 3.5237335855417444 5.095012949451277 3.492915033869152 Q 5.148329334107438 3.4620964821965594 5.208905726188991 3.4547846272758136 Q 5.269482118270544 3.4474727723550673 5.329546517582768 3.460761411685774 Q 5.389610916894993 3.4740500510164813 5.440164857863966 3.50691932317918 Q 5.49373694456243 3.5417509399486073 5.53013989065842 3.592257157541419 Q 5.566542836754409 3.6427633751342317 5.582570549763539 3.7014921152509492 Q 5.5985982627726685 3.760220855367667 5.590554064058872 3.8204745761411836 Q 5.582509865345075 3.880728296914701 5.5476782485756475 3.9343003836131647 M 5.147020975029077 3.9561324507216478 Q 5.190784088106696 3.984586447519208 5.240472924120597 3.996496614419117 Q 5.290161760134498 4.008406781319026 5.338645537386839 4.002357331480786 Q 5.387129314639179 3.996307881642547 5.4294088855888925 3.9717322253886795 Q 5.471688456538605 3.9471565691348127 5.500142453336165 3.903393456057194 Q 5.530068208588771 3.8573667336824577 5.534620957919848 3.808261769844487 Q 5.5391737072509235 3.7591568060065166 5.524031131108114 3.712275387643169 Q 5.508888554965304 3.6653939692798216 5.477728674779826 3.6258112474579627 Q 5.446568794594349 3.5862285256361037 5.405069290813848 3.5592462872935897 Q 5.361306177736229 3.530792290496029 5.311994609938515 3.519127416671961 Q 5.262683042140801 3.507462542847893 5.213576703596432 3.5136439678264786 Q 5.164470365052064 3.5198253928050636 5.122813355394379 3.544269073918585 Q 5.0811563457366935 3.5687127550321067 5.052702348939134 3.6124758681097253 Q 5.023267179838209 3.6577480540520892 5.018337162290947 3.7066077248142184 Q 5.0134071447436845 3.755467395576348 5.028549720886494 3.8023488139396955 Q 5.043692297029304 3.849230232303043 5.074606884138941 3.8891902223410884 Q 5.1055214712485775 3.9291502123791338 5.147020975029077 3.9561324507216478 M 5.3615536322192305 3.1930227181056496 L 5.849114374335142 3.381990791460337 L 5.826347136581565 3.440733049546591 L 5.230532804563842 3.2098082094745983 L 5.249397087273949 3.161136052774559 L 5.897753509848654 2.962626231087744 L 5.401801016577564 2.7704056951968314 L 5.42456825433114 2.7116634371105772 L 6.019543411233345 2.9422630309289475 L 5.998402404747881 2.9968094134376124 L 5.3615536322192305 3.1930227181056496" fill="#4e888f" fill-rule="nonzero"></path></g><g clip-path="url(#SvgjsClipPath1005)"><g clip-path="url(#SvgjsClipPath10015015a690-3e12-444e-8abc-55a22ae61392)"><path d=" M 2.5133272569878 0.43111121857754997 C 2.897885745950199 0.15621604984450937 3.415167194020225 0.015344195794937935 3.8441978436764277 0 L 3.8441978436764277 2.5808590565598712 C 3.2971815981054764 2.594035993061739 2.8570545808687537 2.752679373314487 2.5133272569877994 3.0020875727610203 L 2.5133272569877994 0.43111121857754997 L 2.5133272569877994 0.43111121857754997 Z" fill="#4e888f" transform="matrix(1,0,0,1,0,0)" fill-rule="evenodd"></path></g><g clip-path="url(#SvgjsClipPath10015015a690-3e12-444e-8abc-55a22ae61392)"><path d=" M 1.8212780195245821 3.002087572761021 C 1.4775506956436277 2.7526793733144874 1.0374236784069053 2.594035993061739 0.4903207424642313 2.5808590565598717 L 0.4903207424642313 0 C 0.9193513921204339 0.015344195794937935 1.436719530562183 0.15621604984450937 1.8212780195245821 0.43111121857754997 L 1.8212780195245821 3.002087572761021 Z" fill="#4e888f" transform="matrix(1,0,0,1,0,0)" fill-rule="evenodd"></path></g><g clip-path="url(#SvgjsClipPath10015015a690-3e12-444e-8abc-55a22ae61392)"><path d=" M 2.3184473013549156 0.5937423559295475 C 2.3463616010496615 0.5664348888368612 2.3754895659485262 0.5399076350896804 2.4057445056797886 0.5143339754314507 L 2.4057445056797886 3.0775948865315907 L 2.3184473013549156 3.0775948865315907 L 2.3184473013549156 0.5937423559295475 Z" fill="#404040" transform="matrix(1,0,0,1,0,0)" fill-rule="evenodd"></path></g><g clip-path="url(#SvgjsClipPath10015015a690-3e12-444e-8abc-55a22ae61392)"><path d=" M 2.1236540360937544 0.7125081651898015 L 2.2108645500469044 0.7124214748180788 L 2.2108645500469044 3.0776815769033137 L 2.1236540360937544 3.0776815769033137 L 2.1236540360937544 0.7125081651898015 Z" fill="#404040" transform="matrix(1,0,0,1,0,0)" fill-rule="evenodd"></path></g><g clip-path="url(#SvgjsClipPath10015015a690-3e12-444e-8abc-55a22ae61392)"><path d=" M 1.9287740804608706 0.5145073561748963 C 1.9590290201921323 0.5399943254614034 1.9881569850909975 0.5664348888368614 2.016071284785743 0.5937423559295476 L 2.016071284785743 3.0775948865315907 L 1.9287740804608706 3.0775948865315907 L 1.9287740804608706 0.5145073561748963 L 1.9287740804608706 0.5145073561748963 Z" fill="#404040" transform="matrix(1,0,0,1,0,0)" fill-rule="evenodd"></path></g><g clip-path="url(#SvgjsClipPath10015015a690-3e12-444e-8abc-55a22ae61392)"><path d=" M 2.167172602698607 3.471776006755223 C 2.106749413607806 3.402943851607309 2.041818325187419 3.3376660017000304 1.9722926470657227 3.2763759088920015 L 2.361965867959768 3.2763759088920015 C 2.2927002609532403 3.3376660017000304 2.2277691725328532 3.4030305419790317 2.167172602698607 3.471776006755223 Z" fill="#404040" transform="matrix(1,0,0,1,0,0)" fill-rule="evenodd"></path></g><g clip-path="url(#SvgjsClipPath10015015a690-3e12-444e-8abc-55a22ae61392)"><path d=" M 1.923399277414056 3.471776006755223 C 1.4585655042363317 3.137931385250669 0.8258124810315184 3.020465931566257 0 3.0206393123097026 L 0 0.23363055179298156 C 0.09267200737168728 0.23640464368811157 0.1868177510626624 0.24160606599148035 0.28174370809914284 0.24949488981825635 L 0.28174370809914284 2.744617168744266 C 0.9905241873048634 2.7613484104867685 1.6999981894843665 3.061297096647702 1.923399277414056 3.471776006755223 Z" fill="#404040" transform="matrix(1,0,0,1,0,0)" fill-rule="evenodd"></path></g><g clip-path="url(#SvgjsClipPath10015015a690-3e12-444e-8abc-55a22ae61392)"><path d=" M 2.4111193087266027 3.471776006755223 C 2.875953081904327 3.1378446948789467 3.508706105109141 3.020465931566257 4.334518586140659 3.02055262193798 L 4.334518586140659 0.23354386142125874 C 4.241846578768972 0.23631795331638875 4.1477008350779965 0.24151937561975756 4.052774878041515 0.24940819944653356 L 4.052774878041515 2.7446171687442655 C 3.3439943988357954 2.761348410486768 2.634607087028015 3.061297096647702 2.4111193087266027 3.471776006755222 Z" fill="#404040" transform="matrix(1,0,0,1,0,0)" fill-rule="evenodd"></path></g></g><g><path d=" M -2.3389195659287827 1.7358880033776112 A 4.506178858999112 4.506178858999112 0 0 1 6.6734381520694415 1.7358880033776112 A 4.506178858999112 4.506178858999112 0 0 1 -2.3389195659287827 1.7358880033776112 Z M -2.288919565928783 1.7358880033776103 A 4.456178858999111 4.456178858999111 0 0 0 6.62343815206944 1.7358880033776103 A 4.456178858999111 4.456178858999111 0 0 0 -2.288919565928783 1.7358880033776103 Z" fill="#404040" fill-rule="nonzero"></path></g><g transform="matrix(-0.005065177616082451,-0.9999871719055787,0.9999871719055787,-0.005065177616082451,-3.3089188108131022,0.20572290946763983)"><g clip-path="url(#SvgjsClipPath1006)"><path d=" M -1.5521176493610969 1.9315021112418727 C -1.5408321932404072 1.9315021112418727 -1.5350987657404072 1.9237997925349761 -1.5245307523783382 1.909825964259114 L -1.4184817064300625 1.7681289812418726 C -1.4127482789300625 1.760603985034976 -1.4100619449645453 1.753439748397045 -1.4100619449645453 1.7457353915004932 C -1.4100619449645453 1.7380330727935966 -1.4127482789300625 1.7308667979660104 -1.4184817064300625 1.723343839948769 L -1.5245307523783382 1.5816458378367002 C -1.5350987657404072 1.5676732324746312 -1.5408321932404072 1.559970302310838 -1.5521176493610969 1.559970302310838 C -1.5635824661714417 1.559970302310838 -1.5693158936714418 1.5676732324746312 -1.5798839070335107 1.5816458378367002 L -1.6859335644386833 1.723343839948769 C -1.6916659728438557 1.7308667979660104 -1.6943531220852348 1.7380330727935966 -1.6943531220852348 1.7457353915004932 C -1.6943531220852348 1.753439748397045 -1.6916659728438557 1.760603985034976 -1.6859335644386833 1.7681289812418726 L -1.5798839070335107 1.909825964259114 C -1.5693158936714418 1.9237997925349761 -1.5635824661714417 1.9315021112418727 -1.5521176493610969 1.9315021112418727 Z M -1.5521176493610969 1.8863582485694588 C -1.5530124146197177 1.8863582485694588 -1.5533711359990279 1.8858222046901485 -1.5539092180679934 1.8851047619315278 L -1.6540471063783384 1.7503946930522174 C -1.65548015752489 1.7486031243453208 -1.6558384712662693 1.7471682388280794 -1.6558384712662693 1.7457353915004932 C -1.6558384712662693 1.744302544172907 -1.65548015752489 1.7428696968453208 -1.6540471063783384 1.740898767448769 L -1.5539092180679934 1.6063670401642864 C -1.5533711359990279 1.6056504126815279 -1.5530124146197177 1.6051129420694588 -1.5521176493610969 1.6051129420694588 C -1.5514002066024764 1.6051129420694588 -1.5508641627231659 1.6056504126815279 -1.5505054413438555 1.6063670401642864 L -1.4503671453955798 1.740898767448769 C -1.4489342980679936 1.7428696968453208 -1.4485755766886832 1.744302544172907 -1.4485755766886832 1.7457353915004932 C -1.4485755766886832 1.7471682388280794 -1.4489342980679936 1.7486031243453208 -1.4503671453955798 1.7503946930522174 L -1.5505054413438555 1.8851047619315278 C -1.5508641627231659 1.8858222046901485 -1.5514002066024764 1.8863582485694588 -1.5521176493610969 1.8863582485694588 Z" fill="#404040" transform="matrix(1,0,0,1,0,0)" fill-rule="nonzero"></path></g></g><g transform="matrix(0.005065177616082451,-0.9999871719055787,-0.9999871719055787,-0.005065177616082451,7.605758787284607,7.6443813692932805)"><g clip-path="url(#SvgjsClipPath1007)"><path d=" M 5.886636235501755 1.9315021112418727 C 5.897921691622445 1.9315021112418727 5.903655119122445 1.9237997925349761 5.914223132484514 1.909825964259114 L 6.02027217843279 1.7681289812418726 C 6.02600560593279 1.760603985034976 6.028691939898307 1.753439748397045 6.028691939898307 1.7457353915004932 C 6.028691939898307 1.7380330727935966 6.02600560593279 1.7308667979660104 6.02027217843279 1.723343839948769 L 5.914223132484514 1.5816458378367002 C 5.903655119122445 1.5676732324746312 5.897921691622445 1.559970302310838 5.886636235501755 1.559970302310838 C 5.87517141869141 1.559970302310838 5.86943799119141 1.5676732324746312 5.858869977829341 1.5816458378367002 L 5.752820320424169 1.723343839948769 C 5.747087912018997 1.7308667979660104 5.744400762777617 1.7380330727935966 5.744400762777617 1.7457353915004932 C 5.744400762777617 1.753439748397045 5.747087912018997 1.760603985034976 5.752820320424169 1.7681289812418726 L 5.858869977829341 1.909825964259114 C 5.86943799119141 1.9237997925349761 5.87517141869141 1.9315021112418727 5.886636235501755 1.9315021112418727 Z M 5.886636235501755 1.8863582485694588 C 5.8857414702431345 1.8863582485694588 5.885382748863824 1.8858222046901485 5.884844666794859 1.8851047619315278 L 5.784706778484514 1.7503946930522174 C 5.783273727337962 1.7486031243453208 5.782915413596583 1.7471682388280794 5.782915413596583 1.7457353915004932 C 5.782915413596583 1.744302544172907 5.783273727337962 1.7428696968453208 5.784706778484514 1.740898767448769 L 5.884844666794859 1.6063670401642864 C 5.885382748863824 1.6056504126815279 5.8857414702431345 1.6051129420694588 5.886636235501755 1.6051129420694588 C 5.887353678260376 1.6051129420694588 5.887889722139686 1.6056504126815279 5.888248443518997 1.6063670401642864 L 5.9883867394672725 1.740898767448769 C 5.989819586794859 1.7428696968453208 5.990178308174169 1.744302544172907 5.990178308174169 1.7457353915004932 C 5.990178308174169 1.7471682388280794 5.989819586794859 1.7486031243453208 5.9883867394672725 1.7503946930522174 L 5.888248443518997 1.8851047619315278 C 5.887889722139686 1.8858222046901485 5.887353678260376 1.8863582485694588 5.886636235501755 1.8863582485694588 Z" fill="#404040" transform="matrix(1,0,0,1,0,0)" fill-rule="nonzero"></path></g></g></g><defs><clipPath id="SvgjsClipPath1005"><path d=" M 0 0 h 4.334518586140659 v 3.471776006755223 h -4.334518586140659 Z"></path></clipPath><clipPath id="SvgjsClipPath10015015a690-3e12-444e-8abc-55a22ae61392"><path d=" M 0 0 L 4.334518586140659 0 L 4.334518586140659 3.471776006755223 L 0 3.471776006755223 Z"></path></clipPath><clipPath id="SvgjsClipPath1006"><path d=" M -1.837464201085235 1.4534243457246312 h 0.5706931034482758 v 0.591075 h -0.5706931034482758 Z"></path></clipPath><clipPath id="SvgjsClipPath1007"><path d=" M 5.601289683777617 1.4534243457246312 h 0.5706931034482758 v 0.591075 h -0.5706931034482758 Z"></path></clipPath></defs></svg>